<?xml version="1.0" standalone="no"?>
<!DOCTYPE svg PUBLIC "-//W3C//DTD SVG 1.1//EN" "http://www.w3.org/Graphics/SVG/1.1/DTD/svg11.dtd" >
<svg>
<metadata>
Created by FontForge 20090622 at Wed Oct  3 04:48:13 2018
 By ffonts
Copyright (c) 2017 by Twicolabs Fontdation. All rights reserved.
</metadata>
<defs>
<font id="SignatraDEMO" horiz-adv-x="160" >
  <font-face 
    font-family="Signatra DEMO"
    font-weight="400"
    font-stretch="normal"
    units-per-em="1000"
    panose-1="2 0 5 6 0 0 0 2 0 3"
    ascent="714"
    descent="-286"
    x-height="395"
    cap-height="645"
    bbox="-179.18 -239 672.079 709"
    underline-thickness="50"
    underline-position="-50"
    stemh="52"
    stemv="78"
    unicode-range="U+000D-U+FB02"
  />
<missing-glyph 
 />
    <glyph glyph-name=".notdef" 
 />
    <glyph glyph-name="NULL" horiz-adv-x="0" 
 />
    <glyph glyph-name="NULL" horiz-adv-x="0" 
 />
    <glyph glyph-name="CR" unicode="&#xd;" 
 />
    <glyph glyph-name="space" unicode=" " 
 />
    <glyph glyph-name="exclam" unicode="!" horiz-adv-x="169" 
d="M214 582v0c-51 -115 -88 -254 -114 -377c-3 -15 -5 -27 -6 -35c0 -9 -4 -10 -13 -10c-23 0 -69 25 -65 55c10 63 23 126 37 188c31 131 67 242 89 242c20 0 87 -26 87 -41c0 -2 -1 -4 -2 -5c-5 -6 -10 -10 -13 -17zM85 67v0c0 -17 -21 -69 -67 -68c-64 2 -33 119 2 118
c39 -1 65 -17 65 -50z" />
    <glyph glyph-name="quotedbl" unicode="&#x22;" horiz-adv-x="255" 
d="M293 645v0c16 -16 12 -35 7 -55c-15 -72 -56 -97 -98 -97c-5 0 -6 3 -2 6c12 10 26 24 33 41c1 3 1 6 -2 6c-18 4 -27 18 -29 35c-17 -65 -56 -88 -97 -88c-5 0 -5 3 -2 6c13 10 26 24 33 41c2 3 2 6 -2 6c-54 11 -24 118 10 117c23 0 42 -6 53 -18c6 -6 9 -12 10 -19
c7 21 20 38 34 37c23 0 41 -6 52 -18z" />
    <glyph glyph-name="numbersign" unicode="#" horiz-adv-x="620" 
d="M327 44v0c0 34 4 78 11 128c-48 -2 -94 -6 -143 -9c-12 -66 -19 -121 -19 -151c0 -8 -4 -12 -13 -12c-24 0 -65 22 -65 44c0 30 3 69 8 112c-19 -1 -39 -2 -60 -3c-14 -1 -28 1 -36 24c-4 15 -8 31 -9 44c-1 10 4 11 9 9c11 -5 30 -5 47 -4c21 1 41 2 60 3
c7 44 16 89 26 133l-55 -3c-14 0 -28 1 -36 24c-5 15 -8 31 -9 45c-1 10 4 10 9 8c11 -5 30 -5 46 -4c22 1 42 2 62 4c7 27 13 53 20 76l1 4c17 53 31 88 43 88c20 0 88 -26 88 -42c0 -2 -1 -3 -3 -5c-2 -3 -5 -6 -7 -9c-10 -13 -16 -29 -22 -45c-6 -18 -13 -39 -19 -61
c44 4 86 6 132 8c5 22 11 43 17 62l1 4c17 53 30 88 42 88c20 0 88 -26 88 -42c0 -2 -1 -3 -2 -5c-3 -3 -6 -6 -8 -9c-10 -13 -16 -29 -21 -45c-6 -16 -12 -34 -17 -53c19 0 40 0 62 -1c21 -1 37 -37 34 -61c-1 -9 -4 -11 -12 -10c-37 2 -71 3 -104 3
c-12 -45 -23 -92 -32 -137c22 0 46 -1 72 -2c21 0 37 -36 35 -60c-1 -9 -5 -11 -13 -11c-39 3 -74 3 -109 3c-13 -70 -21 -131 -21 -162c0 -8 -3 -12 -12 -12c-25 0 -66 22 -66 44zM376 378v0c-45 -2 -89 -5 -135 -9c-11 -44 -22 -89 -31 -133c47 3 91 6 139 7
c7 45 17 91 27 135z" />
    <glyph glyph-name="dollar" unicode="$" horiz-adv-x="394" 
d="M276 527v0c-54 0 -124 -38 -124 -100c0 -114 191 -113 192 -247c0 -100 -95 -168 -192 -178c-7 -28 -10 -51 -12 -66c-2 -8 -4 -11 -14 -9c-25 3 -38 24 -35 46c1 9 4 19 7 30c-99 16 -124 114 -70 187c10 14 32 38 52 38c24 0 56 -30 62 -50c1 -5 3 -13 -4 -13
c-23 0 -49 -14 -64 -35c-34 -47 12 -80 54 -80c61 0 124 48 124 113c0 103 -188 96 -188 249c0 92 82 153 167 163c11 42 31 81 41 81c25 0 64 -24 64 -41c0 -2 -1 -3 -2 -5c-11 -12 -20 -27 -28 -42c47 -16 78 -55 64 -112c-6 -25 -14 -49 -28 -69c-10 -14 -31 -38 -49 -38
c-26 0 -64 42 -58 59c0 2 1 3 3 4c27 16 58 33 71 59c14 31 -3 56 -33 56z" />
    <glyph glyph-name="percent" unicode="%" horiz-adv-x="606" 
d="M164 60v0c35 119 154 352 241 486c-29 -11 -61 -15 -91 -13c-5 -74 -63 -157 -139 -157c-115 0 -106 141 -74 218c6 16 15 25 21 25c16 2 63 -14 64 -26c0 -1 0 -3 -1 -4c-3 -5 -6 -9 -9 -14c-22 -38 -48 -166 -4 -166c36 0 65 85 66 145c-19 12 -36 25 -44 44
c-5 12 26 52 49 46c41 -11 63 -43 69 -81c44 -4 93 10 130 36c23 30 41 49 52 49c21 0 56 -40 56 -61c0 -3 -2 -5 -4 -6c-6 -5 -12 -8 -18 -14c-94 -93 -288 -457 -317 -557c-2 -7 -4 -10 -9 -10c-29 0 -44 35 -38 60zM427 29v0c-44 0 -21 205 42 205c43 0 13 -205 -42 -205
zM456 269v0c-148 0 -182 -273 -26 -273c143 0 204 273 26 273z" />
    <glyph glyph-name="ampersand" unicode="&#x26;" horiz-adv-x="493" 
d="M268 649c76 0 145 -43 145 -110c0 -96 -119 -166 -200 -217l1 -1c25 -52 65 -112 111 -165c26 27 49 56 59 80c3 6 9 5 12 1c13 -14 29 -40 36 -61c4 -13 4 -23 -3 -34c-10 -16 -28 -32 -47 -47c22 -21 45 -40 68 -55c1 -2 3 -4 3 -5c0 -24 -52 -63 -73 -63
c-14 0 -53 27 -86 61c-32 -23 -72 -36 -111 -36c-226 0 -230 241 -81 337c-20 51 -32 109 -21 164c19 87 97 151 187 151v0zM246 88c-43 54 -81 114 -113 176c-52 -65 -47 -196 53 -196c21 0 43 7 60 20v0zM187 392c66 49 127 104 127 169c0 46 -45 52 -76 31
c-37 -25 -61 -83 -61 -127c0 -24 4 -49 10 -73v0z" />
    <glyph glyph-name="quotesingle" unicode="'" horiz-adv-x="159" 
d="M197 645v0c16 -16 11 -35 7 -55c-16 -72 -56 -97 -99 -97c-5 0 -5 3 -2 6c13 10 26 24 33 41c2 3 2 6 -2 6c-54 11 -24 118 10 117c23 0 42 -6 53 -18z" />
    <glyph glyph-name="parenleft" unicode="(" horiz-adv-x="212" 
d="M24 39v0c-43 185 16 440 140 587c13 16 28 25 34 25c23 0 54 -24 54 -40c0 -7 -11 -11 -22 -24c-112 -138 -187 -407 -133 -580c2 -8 -1 -13 -8 -13c-26 0 -58 21 -65 45z" />
    <glyph glyph-name="parenright" unicode=")" horiz-adv-x="232" 
d="M208 606v0c43 -185 -16 -440 -140 -587c-14 -16 -28 -25 -34 -25c-23 0 -54 24 -54 40c0 7 11 11 22 24c112 138 186 407 133 580c-2 8 1 13 8 13c25 0 57 -21 65 -45z" />
    <glyph glyph-name="asterisk" unicode="*" horiz-adv-x="197" 
d="M201 628c7 4 14 8 21 2c5 -4 10 -8 13 -13c2 -3 0 -4 -2 -5c-14 -3 -29 -14 -41 -22c13 -9 26 -16 40 -23c4 -2 5 -4 4 -7c-4 -9 -18 -17 -28 -11c-9 5 -17 10 -28 17c0 -14 0 -23 1 -37c0 -4 -1 -6 -4 -6c-9 -2 -23 7 -23 17v24c-9 -6 -17 -10 -25 -15
c-10 -6 -24 2 -28 11c-1 3 1 5 4 7c14 7 27 14 40 23c-12 8 -26 18 -40 22c-2 1 -5 2 -2 5c3 5 7 9 12 13c8 5 15 2 21 -2l19 -13c1 6 1 12 1 18c0 9 0 14 -1 20c-1 3 -1 5 3 5c14 0 26 -5 26 -20c0 -7 -1 -15 -1 -22c7 4 11 8 18 12v0z" />
    <glyph glyph-name="plus" unicode="+" horiz-adv-x="340" 
d="M76 283c-14 -1 -28 1 -36 24c-4 14 -8 30 -9 44c-1 10 4 10 9 8c11 -5 30 -4 47 -3c17 0 34 1 52 2l9 40c9 38 16 63 26 63c24 0 60 -14 62 -31c0 -2 0 -3 -1 -5c-11 -21 -18 -41 -23 -63h63c20 -1 37 -37 34 -61c-1 -9 -5 -11 -13 -10c-34 1 -68 1 -102 -1
c-7 -31 -14 -63 -17 -95c0 -8 -2 -12 -12 -11c-25 1 -49 23 -48 46c1 19 4 37 7 56l-48 -3v0z" />
    <glyph glyph-name="comma" unicode="," horiz-adv-x="139" 
d="M77 99v0c16 -16 11 -36 7 -56c-16 -72 -56 -97 -99 -97c-5 0 -5 4 -2 7c13 10 26 24 33 40c2 4 2 6 -2 7c-54 10 -24 118 10 117c23 -1 42 -7 53 -18z" />
    <glyph glyph-name="hyphen" unicode="-" horiz-adv-x="340" 
d="M76 283c-14 -1 -28 1 -36 24c-4 14 -8 31 -9 44c-1 10 4 10 9 8c11 -4 30 -4 47 -3c61 3 129 8 188 6c20 -1 37 -37 34 -61c-1 -9 -5 -11 -13 -10c-73 4 -147 -4 -220 -8v0z" />
    <glyph glyph-name="period" unicode="." horiz-adv-x="135" 
d="M85 67v0c0 -17 -21 -69 -67 -68c-64 2 -33 119 2 118c39 -1 65 -17 65 -50z" />
    <glyph glyph-name="slash" unicode="/" horiz-adv-x="317" 
d="M-18 60v0c50 174 279 588 329 588c21 0 56 -40 56 -61c0 -3 -2 -5 -4 -6c-6 -5 -12 -8 -18 -14c-93 -93 -288 -457 -317 -557c-1 -7 -4 -10 -9 -10c-29 0 -44 35 -37 60z" />
    <glyph glyph-name="zero" unicode="0" horiz-adv-x="444" 
d="M177 48v0c101 0 185 318 170 471c-9 90 -72 98 -125 36c-110 -131 -167 -507 -45 -507zM166 611v0c26 22 59 39 94 39c81 0 149 -50 170 -122c53 -180 -50 -532 -254 -532c-259 0 -177 476 -10 615z" />
    <glyph glyph-name="one" unicode="1" horiz-adv-x="226" 
d="M56 44v0c0 100 35 293 73 433c-7 -5 -13 -8 -16 -8c-18 -1 -64 55 -57 71c0 2 1 3 3 4c47 24 99 61 132 101c26 0 95 -17 95 -41c0 -2 -1 -4 -2 -5c-5 -6 -9 -10 -13 -17c-59 -106 -137 -474 -137 -570c0 -8 -4 -12 -12 -12c-25 0 -66 22 -66 44z" />
    <glyph glyph-name="two" unicode="2" horiz-adv-x="372" 
d="M258 10v0c-82 8 -181 12 -260 -16c-14 -6 -28 -2 -28 14c0 26 12 53 32 70c131 111 288 289 288 443c0 40 -25 63 -55 63c-54 0 -99 -81 -99 -128c0 -5 -4 -6 -7 -6c-17 0 -58 18 -58 41c0 78 102 156 183 156c79 0 138 -51 138 -129c0 -157 -145 -325 -292 -434
c68 11 140 11 202 2c25 -4 30 -44 30 -68c0 -4 0 -18 -7 -18h-3c-20 5 -43 8 -64 10z" />
    <glyph glyph-name="three" unicode="3" horiz-adv-x="381" 
d="M162 316c-16 -3 -34 -5 -45 -5c-29 0 -13 56 8 56c12 0 21 -1 33 -3c109 26 171 223 79 223c-48 0 -99 -89 -99 -131c0 -5 -4 -6 -7 -6c-17 0 -58 18 -58 41c0 78 110 156 192 156c171 0 144 -237 -28 -308c179 -67 91 -346 -97 -346c-90 0 -158 65 -142 144
c8 37 20 67 29 67c20 0 84 -8 87 -23c0 -2 0 -4 -1 -6c-21 -33 -40 -132 20 -132c18 0 36 9 50 23c61 62 78 222 -21 250v0z" />
    <glyph glyph-name="four" unicode="4" horiz-adv-x="353" 
d="M163 44v0c0 37 5 87 13 142c-51 1 -106 0 -155 -16c-5 -2 -10 -3 -13 -3c-21 0 -28 39 -28 52c108 133 221 269 303 420c3 5 7 6 11 6c31 0 67 -11 91 -31c5 -3 8 -7 8 -10c0 -2 -1 -4 -2 -5c-5 -6 -9 -10 -13 -17c-31 -57 -69 -191 -97 -316c14 -3 23 -6 27 -12
c11 -14 32 -92 9 -83c-14 4 -33 8 -53 10c-14 -73 -23 -137 -23 -169c0 -8 -3 -12 -12 -12c-25 0 -66 22 -66 44zM248 513v0c-61 -96 -120 -180 -188 -261c42 9 86 13 129 16c17 90 37 173 59 245z" />
    <glyph glyph-name="five" unicode="5" horiz-adv-x="386" 
d="M217 569v0c-26 -68 -40 -141 -61 -210c20 20 47 37 72 37c38 0 129 -65 129 -106c0 -32 -3 -65 -10 -98c-26 -121 -112 -199 -209 -199c-90 0 -152 65 -135 144c7 37 19 67 29 67c20 0 83 -8 86 -23c1 -2 0 -4 -1 -6c-6 -12 -10 -23 -13 -36c-8 -41 -13 -97 33 -97
c57 0 91 85 107 150c17 79 24 157 -20 157c-37 0 -68 -36 -89 -85c-2 -7 -7 -11 -16 -11c-26 0 -68 21 -79 44c-3 6 -3 8 -1 16c21 78 39 160 65 237c-11 16 -16 61 -1 67c85 31 217 37 289 22c11 -2 19 -11 21 -28c4 -26 4 -62 -3 -65c-1 -1 -3 0 -4 1c-5 2 -10 5 -15 6
c-59 12 -109 20 -174 16z" />
    <glyph glyph-name="six" unicode="6" horiz-adv-x="364" 
d="M124 41v0c79 3 165 308 80 308c-98 0 -162 -305 -80 -308zM209 396v0c37 0 128 -65 128 -106c0 -131 -54 -298 -213 -298c-134 0 -147 138 -125 237c60 273 147 424 259 424c61 0 136 -49 136 -96c0 -53 -24 -114 -72 -140c-5 -3 -11 -4 -16 -4c-29 0 -73 48 -66 67
c1 4 5 4 8 5c33 10 79 27 79 68c0 29 -23 46 -46 46c-51 0 -98 -105 -137 -231c19 16 41 28 65 28z" />
    <glyph glyph-name="seven" unicode="7" horiz-adv-x="357" 
d="M54 55v0c46 177 153 359 253 510c-76 -5 -148 -22 -224 -53c-7 -3 -12 -6 -17 -10c-2 -1 -4 -2 -5 -2c-15 2 -32 69 -30 88c1 8 16 16 42 23c113 29 205 41 321 34c11 -1 24 -24 30 -44c4 -14 3 -25 -10 -39c-93 -103 -181 -282 -242 -436c-16 -40 -31 -96 -31 -120
c0 -7 -10 -9 -17 -9c-22 0 -56 11 -71 24c-4 5 -4 17 1 34z" />
    <glyph glyph-name="eight" unicode="8" horiz-adv-x="376" 
d="M83 84c7 -29 24 -42 43 -42c57 0 92 67 103 113c15 69 -17 106 -58 134c-60 -35 -102 -134 -88 -205v0zM127 -7c-97 0 -164 78 -143 175c13 64 58 129 119 163c-32 30 -58 76 -37 166c19 87 77 156 177 156c132 0 173 -74 161 -156c-18 -86 -84 -135 -136 -170
c101 -74 80 -201 5 -275c-39 -39 -91 -59 -146 -59v0zM199 562c-40 -54 -53 -134 0 -185c67 30 119 97 104 172c-7 32 -26 47 -47 47c-23 0 -44 -16 -57 -34v0z" />
    <glyph glyph-name="nine" unicode="9" horiz-adv-x="385" 
d="M257 604v0c-80 -3 -160 -308 -80 -308c27 0 66 24 79 45c57 86 63 261 1 263zM252 277v0c-37 -28 -91 -39 -137 -16c-137 68 -61 392 141 392c223 0 118 -357 81 -456c-35 -92 -91 -205 -206 -205c-114 0 -164 101 -131 194c4 13 9 21 14 21c20 0 83 -8 86 -23
c1 -2 0 -3 -1 -5c-6 -12 -10 -23 -13 -37c-4 -21 0 -92 38 -92c67 0 115 184 128 227z" />
    <glyph glyph-name="colon" unicode=":" horiz-adv-x="164" 
d="M85 67v0c0 -17 -21 -69 -67 -68c-64 2 -33 119 2 118c39 -1 65 -17 65 -50zM134 299v0c-1 -16 -21 -69 -67 -67c-64 2 -33 119 2 118c39 -1 65 -18 65 -51z" />
    <glyph glyph-name="semicolon" unicode=";" horiz-adv-x="168" 
d="M77 99v0c16 -16 11 -36 7 -56c-12 -56 -59 -97 -99 -97c-5 0 -5 4 -2 7c13 10 26 24 33 40c2 4 2 6 -2 7c-54 10 -24 118 10 117c23 -1 42 -7 53 -18zM138 299v0c-1 -16 -21 -69 -68 -67c-64 2 -33 119 3 118c38 -1 64 -18 65 -51z" />
    <glyph glyph-name="less" unicode="&#x3c;" horiz-adv-x="348" 
d="M262 284c14 -5 26 -12 24 -36c0 -15 -3 -31 -8 -44c-3 -10 -7 -8 -11 -5c-30 31 -156 64 -218 90c-12 5 -19 25 -19 43c0 20 10 42 18 50c70 10 141 40 209 64c14 5 28 5 41 -16c8 -12 15 -27 19 -41c3 -9 -2 -10 -7 -9c-12 2 -30 -3 -46 -7c-46 -13 -111 -32 -157 -43
c48 -18 108 -29 155 -46v0z" />
    <glyph glyph-name="equal" unicode="=" horiz-adv-x="364" 
d="M100 354c-14 -1 -28 1 -36 24c-5 14 -8 30 -9 44c-1 10 4 10 9 8c11 -5 30 -4 46 -4c62 4 130 9 188 6c21 0 38 -36 35 -60c-1 -9 -5 -11 -13 -11c-73 5 -147 -4 -220 -7v0zM76 212c-14 -1 -28 1 -36 24c-4 15 -8 31 -9 45c-1 9 4 10 9 8c11 -5 30 -5 47 -4
c61 3 129 8 188 6c20 -1 37 -36 34 -60c-1 -9 -5 -11 -13 -11c-73 4 -147 -4 -220 -8v0z" />
    <glyph glyph-name="greater" unicode="&#x3e;" horiz-adv-x="348" 
d="M85 361c-13 5 -25 12 -24 36c1 15 4 32 8 45c3 9 8 7 11 4c31 -31 156 -63 219 -90c12 -5 19 -25 19 -42c0 -21 -10 -42 -19 -51c-70 -10 -140 -40 -209 -64c-13 -4 -27 -5 -40 16c-8 13 -15 28 -19 41c-3 9 2 10 7 10c12 -2 30 2 46 6c45 13 110 32 156 43
c-47 18 -108 30 -155 46v0z" />
    <glyph glyph-name="question" unicode="?" horiz-adv-x="366" 
d="M160 67v0c0 -17 -21 -69 -67 -68c-64 2 -33 119 2 118c39 -1 65 -17 65 -50zM91 210v0c23 145 183 185 183 309c0 40 -20 64 -50 64c-49 0 -88 -76 -88 -128c0 -5 -4 -6 -7 -6c-17 0 -58 18 -58 41c0 87 82 155 168 155c78 0 137 -50 137 -128
c0 -152 -191 -187 -207 -352c0 -9 -4 -11 -13 -11c-23 0 -69 26 -65 56z" />
    <glyph glyph-name="at" unicode="@" horiz-adv-x="624" 
d="M250 47c37 0 75 13 102 36c3 2 6 1 8 -4c2 -4 -1 -13 -4 -19c-27 -43 -77 -61 -127 -61c-377 0 -258 637 136 637c72 0 142 -24 188 -80c105 -128 34 -377 -98 -437c-19 -9 -36 -14 -57 -14c-25 0 -64 47 -62 68l6 45c-29 -61 -67 -113 -112 -113c-21 0 -62 26 -67 63
c-12 108 44 281 143 334c31 18 67 -6 103 -24c1 4 3 9 5 13c4 8 9 13 14 13c20 0 53 -18 65 -29c10 -8 -1 -21 -5 -30c-29 -79 -52 -178 -66 -250c-5 -24 2 -36 14 -36c53 0 140 221 81 345c-27 56 -84 79 -143 79c-258 0 -401 -536 -124 -536v0zM259 157
c48 0 113 219 129 266c3 9 6 18 9 26c-5 8 -12 13 -24 13c-68 0 -121 -172 -127 -258c-1 -10 -3 -47 13 -47v0z" />
    <glyph glyph-name="A" unicode="A" horiz-adv-x="491" 
d="M-2 292c0 5 1 10 3 13c2 2 4 2 7 1c36 -15 78 -24 118 -24h1c94 124 190 245 285 353c9 10 22 4 35 -5c6 10 12 15 16 15c20 0 88 -26 88 -41c0 -2 -1 -4 -2 -5c-5 -6 -9 -10 -13 -17c-59 -106 -138 -474 -138 -570c0 -8 -3 -12 -12 -12c-24 0 -65 22 -66 44
c0 48 9 117 21 192c-55 -3 -108 -16 -162 -22c-37 -56 -80 -126 -110 -179c-7 -14 -12 -22 -14 -38c-1 -2 -1 -4 -3 -5c-12 -10 -75 25 -88 40c-10 13 7 36 14 47l96 133c-20 1 -36 5 -48 11c-12 5 -28 55 -28 69v0zM327 293c9 0 17 -2 24 -5c16 86 37 175 57 242
c-61 -76 -123 -159 -180 -243c33 3 66 6 99 6v0z" />
    <glyph glyph-name="B" unicode="B" horiz-adv-x="428" 
d="M0 44v0c0 169 101 601 143 601c20 0 87 -26 87 -41c0 -2 -1 -4 -2 -5c-5 -6 -9 -10 -12 -17c-38 -67 -83 -237 -111 -379c28 90 61 182 94 258c26 61 59 115 90 150c23 25 52 38 80 38c149 0 92 -272 -42 -359c22 -16 41 -39 49 -64c34 -105 -39 -283 -192 -283
c-29 0 -58 10 -77 33c-15 17 -7 51 6 35c13 -17 31 -22 47 -22c113 0 185 274 105 274c-17 -4 -40 -3 -54 3c-11 6 -21 25 -18 32c4 10 29 17 46 17c104 58 180 281 99 281c-30 0 -71 -55 -111 -147c-56 -130 -113 -308 -142 -436c-2 -9 -8 -13 -19 -13c-24 0 -66 22 -66 44
z" />
    <glyph glyph-name="C" unicode="C" horiz-adv-x="420" 
d="M319 647c56 0 101 -23 117 -65c15 -12 24 -30 24 -45c0 -71 -102 -157 -102 -228c0 -4 -1 -7 -5 -7c-24 0 -65 27 -65 58c0 72 101 123 101 184c0 23 -10 47 -39 47c-194 0 -364 -540 -147 -540c25 0 57 8 78 22c4 3 6 1 8 -3c2 -3 1 -9 -1 -15c-14 -42 -59 -57 -100 -57
c-339 0 -170 649 131 649v0z" />
    <glyph glyph-name="D" unicode="D" horiz-adv-x="477" 
d="M104 -4c-12 20 1 52 11 34c12 -20 28 -30 45 -30c167 0 321 593 180 593c-59 0 -101 -97 -121 -144c-56 -130 -109 -308 -138 -436c-2 -8 -3 -13 -15 -13c-24 0 -66 22 -66 44c0 169 101 601 143 601c20 0 87 -26 87 -41c0 -2 -1 -4 -2 -5c-5 -6 -9 -10 -12 -17
c-33 -58 -71 -195 -99 -322c23 71 48 141 74 201c28 65 78 184 166 184c270 0 71 -690 -183 -690c-27 0 -52 11 -70 41v0z" />
    <glyph glyph-name="E" unicode="E" horiz-adv-x="379" 
d="M268 645c57 0 101 -23 118 -65c15 -12 23 -30 23 -45c0 -62 -63 -104 -62 -167c0 -4 -1 -7 -5 -7c-33 0 -73 22 -73 63c0 28 69 70 69 118c0 31 -22 46 -50 46c-140 0 -187 -232 -70 -244c19 5 25 6 44 6c15 0 32 -61 4 -61c-20 0 -31 2 -51 6
c-152 -46 -196 -321 -12 -321c61 0 98 25 137 62c3 3 8 2 10 -1c2 -4 1 -9 -1 -15c-21 -63 -100 -98 -161 -98c-234 0 -272 296 -52 396c-138 67 -80 327 132 327v0z" />
    <glyph glyph-name="F" unicode="F" horiz-adv-x="320" 
d="M410 645c20 -2 37 -44 34 -67c-1 -9 -5 -11 -13 -11c-79 0 -161 -4 -242 -13c26 -6 59 -19 60 -30c0 -2 -1 -3 -2 -5c-7 -10 -12 -20 -16 -31c-17 -43 -28 -89 -39 -133c29 2 59 2 89 0c9 0 18 -45 11 -50c-103 -53 -145 -151 -160 -259c-1 -14 -2 -25 -2 -34
c0 -8 -3 -12 -12 -12c-24 0 -66 22 -66 44c0 51 10 134 25 215c-25 -11 -47 -24 -66 -38c-5 -3 -8 -2 -11 3c-10 18 -11 44 -8 63c2 12 6 19 17 24c26 13 54 23 84 29c14 67 29 142 60 209c-56 -7 -93 -12 -148 -25c-25 -6 -46 -12 -62 -19c-7 -2 -12 -6 -17 -10
c-2 -1 -4 -2 -5 -1c-15 1 -32 69 -30 88c4 28 186 54 364 64c52 3 104 5 155 -1v0zM176 293c-5 -21 -11 -52 -16 -73c16 27 39 61 65 82c-17 -2 -33 -5 -49 -9v0z" />
    <glyph glyph-name="G" unicode="G" horiz-adv-x="405" 
d="M304 647c57 0 101 -23 118 -65c14 -12 23 -30 23 -45c0 -71 -102 -157 -102 -228c0 -4 -1 -7 -5 -7c-24 0 -65 27 -65 58c0 76 100 114 100 177c0 30 -22 54 -53 54c-9 0 -19 -3 -28 -7c-167 -75 -260 -533 -120 -533c59 0 95 83 112 143c-43 -5 -81 -17 -120 -34
c-5 -2 -7 -1 -9 4c-6 17 -3 44 8 60c3 4 7 7 14 8c63 13 119 17 181 7c11 -2 16 -23 16 -35c0 -9 -3 -11 -9 -10c-7 1 -13 2 -20 2c3 -2 6 -5 8 -7c9 -9 7 -14 3 -28c-27 -98 -57 -217 -59 -257c0 -8 -4 -11 -13 -11c-24 1 -60 26 -59 48s13 71 21 107
c-15 -24 -55 -48 -87 -48c-292 0 -142 647 145 647v0z" />
    <glyph glyph-name="H" unicode="H" horiz-adv-x="417" 
d="M-1 44v0c0 48 9 119 22 194c-11 2 -21 5 -29 9c-11 5 -27 55 -27 69c0 5 1 10 3 12c2 3 4 3 7 2c18 -8 39 -14 59 -18c33 167 82 333 108 333c20 0 88 -26 88 -41c0 -2 -1 -4 -3 -5c-4 -6 -8 -10 -12 -17c-28 -51 -61 -162 -88 -275c50 5 117 16 156 16
c33 163 81 322 106 322c20 0 88 -26 88 -41c0 -2 -1 -4 -3 -5c-4 -6 -9 -10 -12 -17c-29 -52 -63 -167 -89 -282c4 -4 8 -10 10 -17c3 -11 1 -16 -13 -16h-5c-24 -108 -41 -211 -41 -255c0 -8 -3 -12 -12 -12c-24 0 -65 22 -66 44c0 52 10 130 25 213
c-50 -8 -112 -18 -160 -22c-20 -96 -34 -183 -34 -223c0 -8 -3 -12 -12 -12c-24 0 -65 22 -66 44z" />
    <glyph glyph-name="I" unicode="I" horiz-adv-x="170" 
d="M0 44v0c0 169 101 601 143 601c20 0 87 -26 87 -41c0 -2 -1 -4 -2 -5c-5 -6 -9 -10 -12 -17c-59 -106 -138 -474 -138 -570c0 -8 -3 -12 -12 -12c-24 0 -66 22 -66 44z" />
    <glyph glyph-name="J" unicode="J" horiz-adv-x="349" 
d="M-45 13c1 116 151 210 269 257c20 81 33 167 35 243c1 48 -6 87 -24 87c-6 0 -13 -4 -21 -14c-52 -61 -64 -153 -71 -229c0 -8 1 -14 1 -21c1 -2 1 -4 0 -5c-4 -6 -15 -8 -29 -8c-37 0 -61 13 -54 51c15 77 50 169 96 234c20 29 57 37 84 37c50 0 118 -41 118 -77
c0 -189 -76 -649 -294 -649c-56 0 -110 36 -110 94v0zM40 -34c60 0 102 71 121 115c20 44 38 96 53 151c-101 -46 -219 -128 -220 -222c0 -25 20 -44 46 -44v0z" />
    <glyph glyph-name="K" unicode="K" horiz-adv-x="453" 
d="M0 44v0c0 169 101 601 143 601c20 0 87 -26 87 -41c0 -2 -1 -4 -2 -5c-5 -6 -9 -10 -12 -17c-28 -49 -60 -156 -86 -266c5 -2 9 -4 14 -6c106 92 230 236 288 340c4 6 5 12 7 19c1 2 2 3 3 4c13 8 69 -33 79 -49c15 -24 -122 -175 -253 -296c-23 -21 -46 -42 -70 -61
c74 -103 169 -212 248 -270c6 -4 12 -7 18 -10c2 0 3 -1 4 -3c6 -13 -42 -64 -59 -72c-25 -12 -159 143 -263 288c-7 10 -14 20 -21 31c-5 1 -9 3 -13 5c-20 -96 -34 -184 -34 -224c0 -8 -3 -12 -12 -12c-24 0 -66 22 -66 44z" />
    <glyph glyph-name="L" unicode="L" horiz-adv-x="283" 
d="M-14 -23v0c0 170 112 668 155 668c19 0 87 -26 87 -41c0 -2 -1 -4 -2 -5c-5 -6 -9 -10 -13 -17c-58 -104 -146 -526 -149 -631c66 15 149 23 206 24c24 0 39 -3 42 -10c8 -17 16 -74 4 -80h-5c-5 2 -11 4 -17 5c-102 14 -240 4 -336 -35c-30 -13 -29 49 -6 59
c21 10 46 19 72 26c-20 8 -38 23 -38 37z" />
    <glyph glyph-name="M" unicode="M" horiz-adv-x="482" 
d="M316 44v0c0 99 35 289 72 429c-78 -132 -138 -269 -194 -411c-1 -4 -2 -8 -4 -11c-1 -4 -3 -6 -7 -4c-6 1 -15 10 -21 20c-9 12 -10 23 -12 37c-13 114 3 227 16 358c-56 -152 -110 -377 -114 -451c0 -8 -3 -11 -12 -11c-24 0 -65 25 -64 47c7 147 99 490 151 578
c8 13 15 20 20 20c20 0 86 -30 86 -45c-1 -4 -3 -5 -5 -11c-28 -135 -37 -270 -31 -391c66 144 141 280 232 411c7 10 26 36 40 36c20 0 78 -26 78 -41c0 -2 -1 -4 -3 -5c-4 -6 -9 -10 -12 -17c-59 -106 -138 -474 -138 -570c0 -8 -3 -12 -12 -12c-24 0 -65 22 -66 44z" />
    <glyph glyph-name="N" unicode="N" horiz-adv-x="403" 
d="M-5 44v0c0 169 101 601 143 601c20 0 87 -26 87 -41c0 -5 -2 -7 -2 -14c-3 -141 6 -279 26 -415c27 197 98 470 132 470c20 0 87 -26 87 -41c0 -2 -1 -4 -2 -5c-5 -6 -9 -10 -13 -17c-59 -106 -137 -474 -137 -570c0 -8 -3 -12 -12 -12c-42 0 -66 20 -72 43
c-29 121 -56 290 -62 437c-49 -153 -97 -393 -97 -468c0 -8 -3 -12 -12 -12c-24 0 -66 22 -66 44z" />
    <glyph glyph-name="O" unicode="O" horiz-adv-x="431" 
d="M165 49v0c101 0 186 315 170 467c-5 54 -27 79 -55 79c-27 0 -53 -23 -69 -43c-111 -131 -167 -503 -46 -503zM154 609v0c26 22 59 38 94 38c16 0 33 -9 49 -17c248 0 120 -631 -133 -631c-254 0 -177 470 -10 610z" />
    <glyph glyph-name="P" unicode="P" horiz-adv-x="434" 
d="M0 44v0c0 169 101 601 143 601c20 0 87 -26 87 -41c0 -2 -1 -4 -2 -5c-5 -6 -9 -10 -12 -17c-38 -67 -83 -237 -111 -379c28 90 61 182 94 258c26 61 59 115 90 150c23 25 52 38 80 38c178 0 84 -398 -104 -398c-26 0 -52 11 -71 33c-9 10 -5 44 12 27
c9 -8 20 -12 32 -12c116 0 176 297 100 297c-30 0 -71 -55 -111 -147c-56 -130 -113 -308 -142 -436c-2 -9 -8 -13 -19 -13c-24 0 -66 22 -66 44z" />
    <glyph glyph-name="Q" unicode="Q" horiz-adv-x="435" 
d="M165 48v0c17 0 33 9 49 24c-28 15 -55 25 -77 30c-1 1 -8 2 -8 3c-3 2 -3 5 -2 9c6 17 28 40 41 36c27 -8 54 -19 80 -32c59 102 98 290 87 398c-5 53 -27 79 -55 79s-53 -24 -69 -44c-111 -131 -167 -503 -46 -503zM248 647v0c17 0 35 -10 49 -18
c192 0 159 -376 18 -547c39 -24 75 -51 109 -80c27 -23 36 -39 35 -48c-2 -14 -28 -55 -37 -52l-3 3c-2 5 -5 9 -8 13c-29 38 -83 84 -140 121c-32 -26 -68 -41 -107 -41c-254 0 -177 471 -10 610c26 22 59 39 94 39z" />
    <glyph glyph-name="R" unicode="R" horiz-adv-x="429" 
d="M252 252c52 -115 120 -215 185 -287c5 -5 10 -8 16 -12c2 -1 3 -2 3 -4c4 -15 -53 -55 -71 -59c-7 -2 -19 8 -33 26c-87 109 -149 236 -195 364c-32 -93 -60 -189 -77 -267c-2 -9 -8 -13 -19 -13c-24 0 -66 22 -66 44c0 169 101 601 143 601c20 0 87 -26 87 -41
c0 -2 -1 -4 -2 -5c-5 -6 -9 -10 -12 -17c-38 -67 -83 -237 -111 -379c27 87 58 174 94 258c26 61 59 115 90 150c23 25 52 38 80 38c178 0 84 -398 -104 -398c-3 0 -5 0 -8 1v0zM170 316c18 3 40 0 63 -17c116 0 176 297 100 297c-30 0 -71 -55 -111 -147
c-19 -44 -36 -89 -52 -133v0z" />
    <glyph glyph-name="S" unicode="S" horiz-adv-x="415" 
d="M334 300v0c-25 0 -66 27 -66 57c0 73 101 123 101 185c0 23 -10 46 -39 46c-75 0 -181 -108 -181 -195c0 -85 103 -98 162 -128c51 -25 86 -68 74 -128c-24 -112 -147 -172 -253 -171c-88 0 -168 57 -148 154c5 22 14 43 29 63c11 15 37 43 59 43c27 0 64 -34 71 -57
c1 -6 3 -15 -5 -15c-41 0 -90 -43 -90 -85c0 -36 41 -47 71 -47c59 0 165 37 165 111c0 23 -13 45 -39 62c-80 52 -185 64 -200 177c-17 128 115 273 255 273c56 0 100 -23 117 -65c15 -12 23 -30 23 -45c0 -71 -101 -157 -101 -228c0 -4 -2 -7 -5 -7z" />
    <glyph glyph-name="T" unicode="T" horiz-adv-x="355" 
d="M444 645c21 -1 37 -44 35 -67c-1 -9 -5 -11 -13 -11c-62 4 -131 -1 -195 -8c25 -12 19 -18 8 -40c-8 -17 -17 -39 -25 -65c-47 -153 -89 -371 -89 -442c0 -8 -4 -12 -12 -12c-25 0 -66 22 -66 44c0 75 20 203 46 321c13 62 29 123 51 184c-94 -13 -147 -20 -191 -38
c-7 -2 -12 -6 -17 -10c-2 -1 -4 -2 -5 -1c-15 1 -32 69 -30 88c1 8 16 16 42 22c148 39 320 44 461 35v0z" />
    <glyph glyph-name="U" unicode="U" horiz-adv-x="408" 
d="M243 44v0c0 47 7 114 19 187c-2 -6 -4 -11 -6 -18c-27 -79 -86 -213 -145 -213c-46 0 -89 28 -100 60c-9 25 -11 58 -10 95c5 137 44 289 90 417c16 44 31 73 42 73c20 0 87 -26 87 -41c0 -2 -1 -4 -2 -5c-5 -6 -9 -10 -13 -17c-65 -117 -110 -301 -115 -438
c-2 -61 8 -87 26 -87c49 0 115 181 131 222c35 91 64 181 73 213c24 89 49 153 66 153c19 0 87 -26 87 -41c0 -2 -1 -4 -2 -5c-5 -6 -9 -10 -13 -17c-44 -79 -99 -306 -124 -455c-6 -37 -14 -77 -14 -115c0 -8 -3 -12 -12 -12c-24 0 -65 22 -65 44z" />
    <glyph glyph-name="V" unicode="V" horiz-adv-x="397" 
d="M106 0v0c-43 0 -91 43 -93 63c-7 87 3 225 28 345c26 130 67 237 89 237c18 0 86 -25 85 -41c0 -5 -10 -11 -15 -22c-64 -131 -92 -319 -98 -462c-1 -33 3 -53 30 -12c102 151 205 360 227 530c1 11 -2 21 0 24c8 13 81 -9 94 -20c6 -5 3 -30 -7 -67
c-44 -165 -144 -380 -261 -530c-22 -29 -54 -45 -79 -45z" />
    <glyph glyph-name="W" unicode="W" horiz-adv-x="613" 
d="M322 0v0c-43 0 -91 43 -93 63c-1 18 -2 38 -2 60c-17 -26 -35 -52 -54 -75c-22 -29 -42 -48 -67 -48c-43 0 -91 43 -93 63c-7 87 3 225 28 345c26 130 67 237 89 237c18 0 86 -25 85 -41c0 -5 -10 -11 -15 -22c-64 -131 -92 -319 -98 -462c-1 -33 3 -53 30 -12
c36 54 73 115 106 179c11 95 36 200 72 293c7 19 22 24 33 24c47 0 87 -33 79 -64c-20 -73 -50 -145 -82 -213c-12 -72 -19 -144 -22 -207c-1 -33 3 -53 30 -12c102 151 205 360 227 530c1 11 -2 21 0 24c8 13 81 -9 94 -20c6 -5 3 -30 -7 -67c-44 -165 -143 -380 -261 -530
c-22 -29 -54 -45 -79 -45z" />
    <glyph glyph-name="X" unicode="X" horiz-adv-x="492" 
d="M3 67v0c52 96 115 186 182 272c-27 62 -85 199 -89 250c0 11 2 18 5 22c7 13 75 40 89 34c10 -4 4 -12 5 -26c6 -48 39 -141 60 -195c67 77 140 155 225 212c10 7 17 8 21 8c15 0 57 -49 55 -66c-2 -11 -11 -10 -24 -19c-89 -64 -167 -145 -240 -226
c33 -78 110 -244 152 -295c5 -5 4 -10 -3 -16c-20 -17 -66 -30 -79 -16c-43 50 -105 176 -138 247c-63 -77 -123 -158 -170 -245c-4 -8 -9 -10 -16 -6c-21 9 -45 46 -35 65z" />
    <glyph glyph-name="Y" unicode="Y" horiz-adv-x="410" 
d="M352 212v0c-31 -151 -85 -451 -277 -451c-56 0 -110 36 -110 94c1 67 49 119 99 156c-25 11 -44 29 -51 49c-8 25 -10 58 -9 95c5 137 44 289 90 417c16 44 30 73 41 73c20 0 88 -26 88 -41c0 -2 -1 -4 -3 -5c-4 -6 -9 -10 -12 -17c-65 -117 -111 -301 -116 -438
c-2 -61 9 -87 27 -87c42 0 90 122 102 150c13 31 24 59 28 72c35 91 64 181 73 213c25 89 50 153 66 153c20 0 87 -26 87 -41c0 -2 0 -4 -2 -5c-4 -6 -9 -10 -12 -17c-37 -65 -81 -231 -109 -370zM109 0v0c-50 -33 -105 -83 -105 -148c0 -25 20 -44 46 -44
c60 0 102 71 121 115c20 44 34 83 50 138c-16 -7 -32 -15 -47 -23c-17 -20 -37 -39 -65 -38zM252 194v0c-13 -36 -27 -71 -45 -105c8 4 16 7 24 10z" />
    <glyph glyph-name="Z" unicode="Z" horiz-adv-x="433" 
d="M72 73v0c-4 -7 -7 -11 5 -9c114 23 245 27 296 12c10 -3 19 -11 22 -29c3 -26 4 -62 -4 -65c-1 -1 -3 0 -4 1c-5 2 -10 5 -16 6c-110 23 -272 22 -376 -14c-6 -2 -9 0 -12 8c-8 21 -20 47 -5 53l3 2c-4 4 -3 12 7 27c78 128 293 384 388 502c-91 0 -165 -17 -242 -53
c-6 -2 -11 -6 -16 -10c-1 -1 -2 -2 -4 -1c-13 1 -28 69 -26 88c1 8 14 16 37 22c126 37 209 32 336 32c17 0 32 -41 32 -55c0 -13 -7 -22 -21 -37c-110 -122 -282 -322 -383 -457c-6 -7 -11 -15 -17 -23z" />
    <glyph glyph-name="bracketleft" unicode="[" horiz-adv-x="255" 
d="M133 601c5 23 11 51 18 69c13 28 37 31 66 32c21 1 33 1 54 1c15 1 28 -3 31 -20c2 -11 3 -23 1 -35c-1 -8 -6 -8 -10 -6c-9 3 -21 4 -32 4h-37l-134 -650c22 0 37 1 61 2c8 0 12 -1 13 -9c2 -17 -14 -44 -34 -46c-22 -1 -45 -1 -66 -1c-35 0 -58 39 -53 69
c3 22 11 60 16 87l106 503v0z" />
    <glyph glyph-name="backslash" unicode="\" horiz-adv-x="495" 
d="M392 19v0c-113 141 -318 568 -289 608c7 11 31 18 52 18c12 0 23 -2 30 -7c2 -2 3 -4 3 -7c0 -7 -1 -14 0 -22c22 -131 206 -499 272 -581c4 -5 6 -9 2 -13c-16 -24 -54 -16 -70 4z" />
    <glyph glyph-name="bracketright" unicode="]" horiz-adv-x="266" 
d="M142 44c-4 -23 -11 -51 -18 -69c-12 -28 -36 -31 -66 -32c-21 -1 -33 -1 -54 -1c-15 0 -28 3 -31 20c-2 11 -3 24 -1 35c1 8 6 8 10 6c10 -3 21 -4 33 -4h36l134 650c-22 0 -37 -1 -60 -2c-8 0 -12 2 -13 9c-3 17 13 44 34 46c21 1 44 2 66 1c35 0 58 -39 53 -69
c-4 -22 -11 -60 -17 -87l-106 -503v0z" />
    <glyph glyph-name="asciicircum" unicode="^" horiz-adv-x="315" 
d="M176 583c-13 -9 -26 -16 -44 -4c-11 7 -22 17 -29 26c-5 7 -1 10 4 12c27 7 77 49 108 73c14 10 28 19 47 19c21 0 28 -11 39 -23c22 -24 45 -49 70 -71c5 -4 6 -8 -1 -15c-17 -19 -56 -35 -69 -23c-21 19 -37 44 -51 68c-25 -20 -48 -42 -74 -62v0z" />
    <glyph glyph-name="underscore" unicode="_" horiz-adv-x="345" 
d="M12 -9c-23 0 -42 23 -42 49c0 10 4 10 9 8c9 -4 30 -4 47 -4c61 0 175 6 234 6c21 0 35 -21 35 -41c0 -9 -5 -11 -13 -10c-73 4 -197 -8 -270 -8v0z" />
    <glyph glyph-name="grave" unicode="`" horiz-adv-x="159" 
d="M50 658c10 0 14 -1 14 -5c0 -2 -1 -3 -1 -10c2 -51 30 -87 53 -98c4 -2 3 -6 -3 -6c-34 0 -100 16 -111 66c-3 13 -2 30 3 41c7 13 31 12 45 12v0z" />
    <glyph glyph-name="a" unicode="a" horiz-adv-x="335" 
d="M174 68c2 13 3 25 5 38c1 2 1 4 1 7c-29 -61 -67 -113 -112 -113c-40 0 -62 26 -66 62c-13 109 43 282 142 335c31 18 67 -6 103 -24c2 3 4 9 5 13c4 8 9 13 15 13c19 0 52 -18 64 -29c11 -8 -1 -21 -5 -31c-33 -88 -58 -204 -71 -277c-3 -15 6 -15 14 -7
c61 61 103 178 129 246c7 17 32 7 26 -10c-26 -67 -109 -291 -195 -291c-35 0 -58 36 -55 68v0zM97 52c48 0 114 219 129 266c3 9 6 18 10 26c-5 8 -13 13 -24 13c-69 0 -122 -172 -128 -258c-1 -11 -3 -47 13 -47v0z" />
    <glyph glyph-name="b" unicode="b" horiz-adv-x="324" 
d="M0 44v0c0 169 101 601 143 601c20 0 87 -26 87 -41c0 -2 -1 -4 -2 -5c-5 -6 -9 -10 -12 -17c-32 -56 -69 -187 -96 -311c15 30 30 61 50 89c20 29 44 53 69 53c42 0 82 -56 82 -89c0 -56 -22 -121 -54 -179c47 35 91 85 119 157c7 16 33 6 26 -11
c-35 -86 -97 -156 -179 -200c-40 -53 -85 -91 -121 -91c-11 0 -26 10 -34 17c0 -6 2 -17 -12 -17c-24 0 -66 22 -66 44zM193 341v0c-20 -30 -38 -61 -54 -93c-28 -56 -48 -115 -57 -176c19 2 41 6 65 14c38 52 77 153 81 241c1 31 -17 40 -35 14z" />
    <glyph glyph-name="c" unicode="c" horiz-adv-x="267" 
d="M131 0c-241 0 -99 403 37 403c47 0 96 -43 96 -86c0 -54 -29 -113 -52 -113c-15 0 -42 16 -55 31c-7 8 -3 18 8 24c20 12 38 34 46 57c10 26 5 40 -8 40c-84 0 -179 -309 -56 -309c89 0 151 165 188 255c7 16 32 6 25 -11c-38 -94 -109 -291 -229 -291v0z" />
    <glyph glyph-name="d" unicode="d" horiz-adv-x="350" 
d="M189 98c0 5 1 10 1 16c-28 -60 -67 -114 -116 -114c-50 0 -71 38 -73 81c-5 108 43 266 136 316c32 18 70 -7 98 -21c31 143 71 269 94 269c20 0 88 -26 88 -41c0 -2 -1 -4 -3 -5c-4 -6 -9 -10 -12 -17c-50 -90 -115 -370 -133 -511c-3 -22 2 -26 16 -11
c58 62 103 175 128 241c7 17 32 7 26 -10c-26 -67 -113 -291 -199 -291c-56 0 -54 59 -51 98v0zM205 357c-66 0 -110 -159 -119 -247c-3 -34 5 -55 20 -55c10 0 23 10 37 32c23 34 45 87 62 136c6 38 14 78 22 118c-4 9 -12 16 -22 16v0z" />
    <glyph glyph-name="e" unicode="e" horiz-adv-x="279" 
d="M133 0c-241 0 -106 403 37 403c38 0 105 -51 105 -95c0 -93 -109 -165 -186 -165c-2 -53 14 -96 60 -96c81 0 154 164 188 255c6 17 32 6 25 -11c-36 -98 -116 -291 -229 -291v0zM173 343c-40 -30 -74 -109 -82 -177c54 0 114 81 114 161c0 21 -17 28 -32 16v0z" />
    <glyph glyph-name="f" unicode="f" horiz-adv-x="202" 
d="M127 200v0c52 8 118 56 137 102c8 16 33 6 26 -11c-25 -57 -103 -110 -163 -119c20 -101 18 -227 -7 -318c-7 -27 -19 -59 -36 -76c-16 -17 -31 -17 -48 -17c-24 0 -66 15 -66 37c0 24 2 53 6 85c20 188 64 412 126 585c16 44 30 71 41 71c19 0 87 -26 87 -41
c0 -2 -1 -4 -2 -5c-5 -6 -9 -10 -13 -17c-28 -51 -61 -163 -88 -276zM69 -196v0c7 0 17 33 20 42c27 84 29 181 19 267c-17 -86 -32 -174 -41 -262c-3 -31 -2 -47 2 -47z" />
    <glyph glyph-name="g" unicode="g" horiz-adv-x="331" 
d="M175 110c-29 -60 -67 -110 -111 -110c-40 0 -63 26 -67 62c-12 109 44 282 143 335c16 9 34 7 53 0c17 -6 33 -16 50 -24c1 3 3 9 5 13c3 8 9 13 14 13c20 0 52 -18 65 -29c7 -5 4 -13 0 -20c-4 -8 -7 -16 -9 -25c-22 -70 -41 -144 -55 -206l-2 -9c53 49 102 110 133 191
c6 17 32 7 25 -9c-38 -101 -103 -173 -169 -228c-15 -65 -32 -130 -54 -192c-24 -66 -57 -111 -135 -111c-24 0 -50 11 -65 32c-29 41 -13 97 19 132c36 42 93 69 136 99l24 86v0zM207 357c-68 0 -121 -172 -127 -258c-1 -11 -3 -47 13 -47c48 0 113 219 129 266
c3 9 6 18 9 26c-5 8 -14 13 -24 13v0zM51 -192c17 0 38 16 50 52c12 35 25 77 38 122c-45 -31 -122 -73 -119 -137c1 -17 11 -37 31 -37v0z" />
    <glyph glyph-name="h" unicode="h" horiz-adv-x="335" 
d="M170 68c9 86 33 188 64 272c-70 -75 -133 -199 -152 -291c-2 -12 -4 -25 -4 -37c0 -8 -3 -12 -12 -12c-24 0 -66 22 -66 44c0 176 101 601 143 601c20 0 87 -26 87 -41c0 -2 -1 -4 -2 -5c-5 -6 -9 -10 -12 -17c-39 -69 -85 -249 -113 -392c37 79 91 157 145 202
c6 5 12 7 19 7c15 0 68 -18 68 -37c0 -4 -2 -7 -3 -11c-4 -8 -8 -16 -11 -25c-32 -86 -58 -194 -71 -264c-2 -15 4 -17 15 -7c60 61 106 178 133 246c6 17 32 7 25 -10c-26 -67 -113 -291 -199 -291c-34 0 -58 36 -54 68v0z" />
    <glyph glyph-name="i" unicode="i" horiz-adv-x="167" 
d="M1 68c2 13 3 25 5 38c15 94 43 201 77 280c4 8 9 13 15 13c19 0 52 -18 64 -29c11 -8 -1 -21 -4 -31c-34 -88 -63 -204 -76 -277c-3 -15 6 -15 14 -7c61 61 107 178 133 246c7 17 32 7 26 -10c-26 -67 -113 -291 -199 -291c-35 0 -58 36 -55 68v0zM162 579
c9 18 17 28 24 28c11 -1 40 -14 59 -27c15 -10 15 -23 4 -41c-18 -30 -72 -111 -96 -112c-57 -2 -4 128 9 152v0z" />
    <glyph glyph-name="j" unicode="j" horiz-adv-x="171" 
d="M88 386c3 8 9 13 14 13c20 0 52 -18 65 -29c7 -5 4 -13 0 -20c-4 -8 -7 -16 -10 -25c-21 -70 -40 -144 -54 -206l-2 -9c53 49 102 110 133 191c6 17 32 7 25 -9c-38 -101 -103 -173 -169 -228c-15 -65 -32 -130 -54 -192c-24 -66 -57 -111 -135 -111c-25 0 -50 11 -65 32
c-29 41 -13 97 19 132c36 42 93 69 136 99c23 95 44 195 71 289c8 25 15 49 26 73v0zM-109 -192c17 0 38 16 50 52c12 35 25 77 38 122c-45 -31 -123 -73 -119 -137c1 -17 11 -37 31 -37v0zM166 579c10 18 18 28 24 28c12 -1 40 -14 59 -27c15 -10 15 -23 4 -41
c-18 -30 -72 -111 -96 -112c-57 -2 -3 128 9 152v0z" />
    <glyph glyph-name="k" unicode="k" horiz-adv-x="319" 
d="M224 339c-38 -43 -65 -98 -90 -148c36 24 92 86 106 139c4 13 1 28 -16 9v0zM218 375c19 18 42 34 62 21c16 -9 29 -27 37 -45c10 -23 6 -43 -8 -64c-26 -37 -63 -73 -105 -97c1 -20 19 -141 51 -141c3 0 6 2 11 6c60 61 94 178 120 246c7 17 33 7 26 -10
c-26 -67 -101 -291 -187 -291c-62 0 -99 103 -105 161c-18 -39 -31 -77 -38 -112c-2 -12 -4 -25 -4 -37c0 -8 -3 -12 -12 -12c-24 0 -66 22 -66 44c0 176 101 601 143 601c20 0 87 -26 87 -41c0 -2 -1 -4 -2 -5c-5 -6 -9 -10 -12 -17c-39 -69 -85 -249 -113 -392
c30 63 64 135 115 185v0z" />
    <glyph glyph-name="l" unicode="l" horiz-adv-x="164" 
d="M2 98c16 193 102 547 141 547c19 0 87 -26 87 -41c0 -2 -1 -4 -2 -5c-5 -6 -9 -10 -13 -17c-50 -90 -115 -370 -133 -511c-2 -22 2 -26 17 -11c58 62 102 175 127 241c7 17 33 7 26 -10c-26 -67 -113 -291 -199 -291c-55 0 -54 59 -51 98v0z" />
    <glyph glyph-name="m" unicode="m" horiz-adv-x="499" 
d="M0 48v0c9 105 42 242 84 338c3 8 9 13 14 13c20 0 52 -18 65 -29c10 -8 -1 -21 -5 -31c-18 -48 -36 -105 -49 -159c36 77 89 172 137 212c5 5 12 7 19 7c12 0 50 -12 63 -27c6 -8 4 -13 1 -21c-22 -55 -39 -114 -54 -171c36 77 89 172 137 212c6 5 12 7 19 7
c15 0 68 -18 68 -37c0 -4 -2 -7 -3 -11c-5 -8 -8 -16 -11 -25c-32 -86 -59 -194 -71 -264c-3 -15 4 -17 15 -7c60 61 106 178 132 246c7 17 33 7 26 -10c-26 -67 -113 -291 -199 -291c-34 0 -61 27 -58 53c10 85 37 203 67 287c-66 -72 -151 -261 -155 -329
c-1 -10 -7 -11 -13 -11c-24 0 -63 27 -63 48c8 89 33 201 66 291c-67 -73 -152 -260 -157 -328c0 -10 -6 -11 -12 -11c-24 0 -63 27 -63 48z" />
    <glyph glyph-name="n" unicode="n" horiz-adv-x="332" 
d="M0 48v0c9 105 42 242 84 338c3 8 9 13 14 13c20 0 53 -18 65 -29c10 -8 -1 -21 -5 -31c-18 -48 -36 -105 -49 -159c36 77 89 172 137 212c5 5 12 7 19 7c14 0 67 -18 67 -37c0 -4 -1 -7 -3 -11c-4 -8 -7 -16 -11 -25c-31 -86 -58 -194 -70 -264c-3 -15 4 -17 14 -7
c61 61 107 178 133 246c7 17 32 7 26 -10c-26 -67 -113 -291 -199 -291c-35 0 -61 27 -58 53c10 85 37 203 67 287c-67 -72 -151 -261 -156 -329c0 -10 -6 -11 -12 -11c-24 0 -63 27 -63 48z" />
    <glyph glyph-name="o" unicode="o" horiz-adv-x="331" 
d="M95 70v0c3 1 6 2 10 2c22 2 36 6 58 13c36 52 64 149 64 213c0 66 -36 70 -72 31c-57 -63 -85 -205 -60 -259zM135 397v0c22 11 51 3 71 -11c62 0 114 -43 114 -88s-10 -95 -29 -140c44 39 81 88 103 144c7 16 32 6 26 -11c-32 -78 -86 -142 -156 -186
c-37 -61 -90 -105 -149 -105c-72 0 -115 72 -115 124c0 99 51 229 135 273z" />
    <glyph glyph-name="p" unicode="p" horiz-adv-x="351" 
d="M-25 -195v0c0 170 81 602 123 602c20 0 87 -26 87 -42c0 -2 -1 -3 -2 -5c-4 -5 -9 -10 -12 -16c-12 -21 -23 -50 -34 -86c20 37 43 73 67 106c20 27 43 47 66 47c43 0 82 -54 82 -87c0 -56 -26 -121 -57 -179c47 35 90 85 119 157c7 16 32 6 26 -11
c-35 -86 -98 -156 -180 -200c-39 -53 -85 -91 -120 -91c-26 0 -46 9 -57 19c-18 -104 -30 -202 -30 -246c0 -8 -3 -12 -12 -12c-24 0 -66 23 -66 44zM229 347v0c-63 -75 -106 -167 -133 -260c-2 -8 -3 -15 -5 -23c8 5 17 7 26 8c16 1 36 7 57 14c38 52 82 153 86 241
c0 19 -6 30 -15 29c-5 0 -11 -3 -16 -9z" />
    <glyph glyph-name="q" unicode="q" horiz-adv-x="340" 
d="M124 -202v0c0 66 15 174 37 279c-26 -43 -58 -77 -93 -77c-40 0 -62 26 -66 62c-13 109 43 282 142 335c7 4 14 6 22 6c28 0 55 -17 79 -29c8 16 15 25 22 25c19 0 87 -26 87 -42c0 -1 -1 -3 -2 -4c-5 -6 -9 -11 -13 -17c-29 -53 -63 -170 -90 -286
c75 70 113 141 149 251c5 17 32 8 26 -9c-39 -119 -85 -201 -175 -279c0 -73 -3 -168 -31 -237c-4 -9 -16 -15 -28 -15c-25 0 -66 15 -66 37zM233 347v0c-5 7 -13 10 -21 10c-69 0 -122 -172 -128 -258c-1 -11 -3 -47 13 -47c30 0 67 84 94 159c14 55 29 103 42 136z" />
    <glyph glyph-name="r" unicode="r" horiz-adv-x="325" 
d="M0 48v0c9 105 42 242 84 338c3 8 9 13 14 13c20 0 53 -18 65 -29c10 -8 -1 -21 -5 -31c-18 -48 -36 -105 -49 -159c36 77 89 172 137 212c5 5 12 7 19 7c11 0 47 -11 62 -26c13 -13 5 -23 -6 -31c-34 -29 -51 -79 -53 -114c-1 -25 8 -36 19 -36c42 0 82 80 101 112
c10 15 33 1 24 -15c-22 -36 -64 -114 -112 -131c-34 -13 -97 18 -102 62c-3 30 12 77 27 107c4 9 1 7 -3 2c-65 -78 -142 -253 -147 -318c0 -10 -6 -11 -12 -11c-24 0 -63 27 -63 48z" />
    <glyph glyph-name="s" unicode="s" horiz-adv-x="249" 
d="M54 -6c-64 0 -89 53 -63 93c15 25 41 34 69 37c22 3 45 3 64 7c-9 60 -78 97 -78 174c0 64 55 102 110 102c36 0 82 -51 82 -87c0 -21 -22 -58 -36 -58c-22 0 -53 15 -53 25c0 2 1 3 2 4c17 0 31 27 31 46c0 12 -5 22 -16 22c-25 0 -36 -43 -36 -61c0 -53 54 -91 75 -136
c55 31 87 79 107 139c5 17 31 8 26 -9c-25 -76 -65 -125 -124 -157c12 -88 -83 -141 -160 -141v0zM123 102c-21 -5 -55 -2 -78 -8c-44 -11 -30 -73 17 -57c28 10 53 38 61 65v0z" />
    <glyph glyph-name="t" unicode="t" horiz-adv-x="193" 
d="M215 532v0c-7 -8 -10 -15 -13 -24c-4 -10 -7 -20 -10 -30c30 0 62 -3 75 -12c6 -3 12 -30 12 -40c0 -6 -1 -9 -4 -11h-3c-29 10 -65 11 -96 11c-34 -118 -68 -265 -80 -355c-2 -22 2 -26 16 -11c58 62 119 175 144 241c7 17 32 7 26 -10c-26 -67 -134 -291 -215 -291
c-56 0 -54 59 -51 98c8 91 34 217 61 325h-22c-19 0 -63 -1 -73 26c-3 8 -1 12 9 12c33 0 65 4 97 8c7 26 13 52 23 76s20 37 29 37c20 0 81 -25 81 -41c0 -2 -1 -3 -3 -5c-1 -1 -2 -3 -3 -4z" />
    <glyph glyph-name="u" unicode="u" horiz-adv-x="342" 
d="M177 68c2 13 4 25 5 38c1 2 1 4 2 7c-30 -61 -67 -113 -112 -113c-38 0 -74 39 -71 68c2 13 3 25 5 38c14 94 43 201 77 280c4 8 9 13 15 13c19 0 52 -18 64 -29c10 -8 -1 -21 -5 -31c-29 -78 -56 -178 -70 -251c-5 -23 2 -36 13 -36c48 0 118 219 134 266
c8 24 16 47 25 68c4 8 10 13 15 13c19 0 52 -18 64 -29c11 -8 -1 -21 -4 -31c-34 -88 -63 -204 -76 -277c-3 -15 6 -15 15 -7c60 61 106 178 132 246c7 17 32 7 26 -10c-26 -67 -113 -291 -199 -291c-34 0 -58 36 -55 68v0z" />
    <glyph glyph-name="v" unicode="v" horiz-adv-x="309" 
d="M280 393c24 -14 37 -44 28 -66c-16 -37 -38 -83 -63 -129c8 -4 18 -6 29 -4c32 6 61 39 99 109c9 16 33 3 24 -13c-42 -78 -79 -116 -118 -123c-18 -3 -34 -1 -47 7c-31 -55 -65 -110 -97 -149c-9 -12 -24 -25 -39 -25c-30 0 -86 25 -86 57c0 103 13 233 40 328
c3 9 8 15 17 15c20 0 51 -11 64 -20c11 -7 1 -22 -1 -31c-21 -79 -45 -217 -49 -288c-1 -9 2 -12 9 -3c36 48 79 139 107 195c1 36 13 83 49 135c9 14 22 12 34 5v0z" />
    <glyph glyph-name="w" unicode="w" horiz-adv-x="456" 
d="M427 393c25 -14 36 -46 28 -66c-16 -37 -37 -83 -62 -129c7 -4 17 -6 28 -4c32 6 61 39 99 109c9 16 33 3 24 -13c-42 -78 -79 -116 -118 -123c-18 -3 -34 -1 -47 7c-31 -55 -65 -110 -96 -149c-10 -12 -24 -25 -40 -25c-23 0 -63 19 -76 37c-9 12 -8 35 -6 55
c-20 -38 -46 -82 -69 -92c-31 0 -82 25 -82 57c0 103 13 233 40 328c3 9 8 15 17 15c20 0 51 -11 64 -20c11 -7 1 -22 -1 -31c-20 -77 -49 -209 -51 -282c0 -14 5 -20 15 -10c25 23 50 81 80 149c12 63 28 127 43 179c3 9 8 15 17 15c20 0 51 -11 64 -20c11 -7 2 -22 -1 -31
c-28 -80 -65 -217 -69 -288c0 -9 2 -12 9 -3c36 48 79 139 107 195c2 36 16 83 51 135c7 10 21 12 32 5v0z" />
    <glyph glyph-name="x" unicode="x" horiz-adv-x="330" 
d="M220 0v0c-22 0 -51 13 -63 42c-11 27 -22 59 -33 92l-38 -47c-24 -30 -49 -60 -69 -94c-3 -4 -5 -6 -8 -6c-2 0 -4 2 -7 5c-6 7 -10 21 -9 31c3 22 23 51 37 72l75 105c-7 29 -14 57 -19 84c-1 -2 -2 -3 -2 -5c-6 -17 -32 -9 -26 9c7 22 16 58 12 83c-2 10 2 16 10 20
c19 9 58 9 68 7c12 -2 12 -10 11 -18c0 -7 0 -12 1 -18c4 -23 8 -47 13 -72c27 34 55 67 86 98c10 10 22 20 32 26c15 9 43 -13 51 -26s0 -17 -7 -22c-5 -4 -10 -9 -15 -13c-45 -45 -87 -93 -128 -140c14 -57 30 -112 44 -150c4 -14 14 -19 29 -3c58 61 102 175 128 241
c7 17 32 7 26 -10c-26 -67 -113 -291 -199 -291z" />
    <glyph glyph-name="y" unicode="y" horiz-adv-x="350" 
d="M267 386c3 8 9 13 14 13c20 0 52 -18 65 -29c6 -5 4 -13 0 -20c-4 -8 -7 -16 -10 -25c-21 -70 -40 -144 -54 -206l-2 -9c53 49 101 110 133 191c6 17 32 7 25 -9c-38 -101 -103 -173 -169 -228c-15 -65 -32 -130 -55 -192c-23 -66 -56 -111 -135 -111
c-24 0 -49 11 -64 32c-29 40 -12 97 18 132c37 42 94 69 137 99c7 29 13 58 20 88c-29 -61 -66 -112 -111 -112c-38 0 -74 39 -71 68c2 13 4 25 5 38c15 94 43 201 77 280c4 8 10 13 15 13c19 0 52 -18 64 -29c11 -8 -1 -21 -4 -31c-30 -78 -56 -178 -71 -251
c-5 -23 2 -36 14 -36c43 0 105 176 129 246c1 5 3 10 4 15c7 25 15 49 26 73v0zM70 -192c17 0 37 16 50 52c12 35 25 77 38 122c-45 -31 -123 -73 -119 -137c1 -17 12 -37 31 -37v0z" />
    <glyph glyph-name="z" unicode="z" horiz-adv-x="311" 
d="M91 67v0c-14 -4 -27 -7 -40 -7c-56 0 -50 54 2 54c7 0 13 -1 20 -2c72 37 138 138 138 218c-42 -12 -88 -44 -126 -72c-7 -5 -16 -19 -31 -7c-11 10 -21 36 -26 55c-4 14 1 18 14 25c61 31 134 64 205 64c19 0 44 -53 44 -79c-6 -98 -83 -191 -155 -229
c12 -9 24 -21 34 -38c92 66 163 146 204 252c6 17 32 7 25 -9c-44 -117 -120 -196 -216 -267c54 -107 -1 -264 -138 -264c-25 0 -50 11 -65 32c-29 41 -12 97 18 132c33 38 78 61 119 88c-4 22 -14 40 -26 54zM4 -148v0c-1 -32 25 -53 54 -38c48 24 67 121 64 168
c-45 -31 -116 -69 -118 -130z" />
    <glyph glyph-name="braceleft" unicode="{" horiz-adv-x="251" 
d="M73 -57v0c-70 2 -62 73 -51 123l52 244c-9 -1 -19 -4 -30 -4c-20 0 -36 14 -33 32s17 29 40 29c8 0 25 -3 32 -5l50 239c12 54 15 99 81 101c20 1 33 1 53 1c16 1 29 -3 32 -20c2 -11 2 -24 1 -36c-2 -8 -6 -8 -11 -6c-9 4 -21 4 -32 4h-36l-52 -252
c-7 -33 -20 -55 -40 -68c15 -21 18 -47 10 -83l-53 -241c7 0 14 -1 22 -1c16 -1 35 -1 46 3c5 2 10 1 9 -7c-1 -11 -4 -24 -9 -36c-6 -14 -22 -18 -36 -17h-45z" />
    <glyph glyph-name="bar" unicode="|" horiz-adv-x="279" 
d="M0 -1v0c0 197 117 698 166 698c28 0 73 -28 73 -48c0 -2 -1 -4 -2 -6c-5 -6 -11 -12 -15 -19c-68 -124 -159 -550 -159 -662c0 -10 -2 -14 -14 -14c-29 0 -49 24 -49 51z" />
    <glyph glyph-name="braceright" unicode="}" horiz-adv-x="271" 
d="M198 703v0c70 -1 63 -72 52 -123l-53 -243c10 1 20 3 30 3c20 0 36 -14 33 -32s-16 -29 -39 -29c-8 0 -26 4 -32 5l-51 -239c-11 -54 -15 -99 -80 -101c-21 0 -33 -1 -54 -1c-15 0 -28 3 -31 20c-2 11 -3 25 -1 36c1 8 6 8 10 7c10 -4 22 -5 33 -5h36l52 252
c7 34 20 55 39 68c-14 21 -17 47 -9 84l53 241h-22c-17 1 -35 1 -47 -3c-4 -1 -9 -1 -9 7c1 11 5 24 10 36c6 15 22 18 36 17h44z" />
    <glyph glyph-name="asciitilde" unicode="~" horiz-adv-x="371" 
d="M105 381v0c62 0 117 -42 162 -42c34 0 50 22 63 34c4 3 11 0 11 -3c0 -37 -29 -106 -77 -106c-65 0 -91 46 -157 46c-32 0 -48 -12 -67 -38c-2 -2 -7 -1 -8 1c-7 54 18 108 73 108z" />
    <glyph glyph-name="fi" unicode="&#xfb01;" horiz-adv-x="358" 
d="M128 200v0c52 9 126 141 146 187c3 8 9 13 14 13c20 0 52 -18 65 -28c10 -9 -1 -22 -5 -31c-34 -89 -63 -205 -76 -279c-3 -15 6 -15 15 -6c60 60 107 178 133 246c6 17 32 7 26 -10c-26 -67 -114 -292 -200 -292c-34 0 -58 36 -55 68c2 13 4 25 5 38c8 47 18 98 32 147
c-31 -41 -66 -75 -100 -81c20 -101 17 -227 -7 -319c-7 -26 -18 -57 -37 -76c-16 -16 -30 -16 -48 -16c-24 0 -66 14 -66 36c0 24 2 53 6 86c20 188 65 413 126 587c16 43 30 71 41 71c20 0 88 -26 88 -42c0 -1 -1 -3 -2 -5c-5 -5 -9 -10 -13 -16c-28 -52 -62 -164 -88 -278
zM70 -197v0c7 0 17 35 19 42c27 84 29 182 20 269c-18 -87 -32 -175 -41 -264c-4 -31 -3 -47 2 -47zM352 580c10 19 18 29 24 29c12 -1 40 -14 60 -27c15 -10 14 -23 4 -41c-18 -31 -73 -112 -97 -113c-57 -1 -3 128 9 152v0z" />
    <glyph glyph-name="fl" unicode="&#xfb02;" horiz-adv-x="365" 
d="M128 200v0c39 7 81 63 107 113c33 167 82 334 109 334c20 0 87 -26 87 -41c0 -2 0 -4 -2 -5c-4 -6 -9 -11 -12 -17c-51 -91 -116 -371 -134 -512c-2 -23 2 -27 17 -11c58 61 102 175 128 241c6 17 32 7 26 -10c-26 -67 -114 -292 -200 -292c-56 0 -54 60 -51 99
c3 41 10 90 19 142c-26 -34 -58 -63 -94 -69c20 -101 17 -227 -7 -319c-8 -26 -20 -59 -37 -76c-16 -16 -30 -16 -48 -16c-24 0 -66 14 -66 36c0 29 2 57 6 86c20 188 65 413 126 587c16 43 30 71 41 71c20 0 88 -26 88 -42c0 -1 -1 -3 -2 -5c-5 -5 -9 -10 -13 -16
c-28 -52 -62 -164 -88 -278zM68 -150v0c-1 -8 -5 -47 2 -47s17 34 19 42c27 84 29 182 20 269c-18 -87 -32 -175 -41 -264z" />
    </font>
</defs>
</svg>
